<?xml version="1.0" encoding="UTF-8" ?>
<!DOCTYPE svg PUBLIC "-//W3C//DTD SVG 1.1//EN" "http://www.w3.org/Graphics/SVG/1.1/DTD/svg11.dtd">
<svg width="60pt" height="60pt" viewBox="0 0 60 60" version="1.1" xmlns="http://www.w3.org/2000/svg">
<g id="#ff7772ff">
<path fill="#ed7672" opacity="1.00" d=" M 28.42 0.00 L 31.57 0.00 C 40.30 0.55 48.80 4.91 54.02 11.99 C 57.61 16.72 59.54 22.56 60.00 28.44 L 60.00 30.00 C 53.35 30.04 46.71 29.93 40.06 30.04 C 40.74 23.57 34.37 17.67 27.96 19.18 C 20.49 20.39 17.17 31.00 22.96 36.06 C 27.92 41.60 38.17 38.81 39.62 31.49 C 51.05 35.38 59.45 46.36 60.00 58.45 L 60.00 60.00 L 28.46 60.00 C 19.71 59.46 11.20 55.09 5.98 48.00 C 2.39 43.27 0.46 37.44 0.00 31.55 L 0.00 28.49 C 0.41 22.59 2.39 16.77 5.98 12.04 C 11.12 4.87 19.69 0.59 28.42 0.00 Z" />
</g>
<g id="#ffffffff">
<path fill="#4b4763" opacity="1.00" d=" M 22.96 36.06 C 17.17 31.00 20.49 20.39 27.96 19.18 C 34.37 17.67 40.74 23.57 40.06 30.04 C 39.95 30.40 39.73 31.13 39.62 31.49 C 38.17 38.81 27.92 41.60 22.96 36.06 Z" />
</g>
</svg>
