<svg width="30" height="30" fill="none" xmlns="http://www.w3.org/2000/svg">
	<path d="m19.8 14.498-3.863 3.864V8.438a.938.938 0 0 0-1.874 0v9.924l-3.864-3.864a.937.937 0 1 0-1.326 1.326l5.304 5.304a.919.919 0 0 0 .824.242.922.922 0 0 0 .824-.242l5.303-5.304a.937.937 0 0 0 0-1.326.94.94 0 0 0-1.327 0ZM15 0C6.716 0 0 6.715 0 15s6.716 15 15 15c8.284 0 15-6.716 15-15 0-8.284-6.715-15-15-15Zm0 28.125C7.751 28.125 1.875 22.249 1.875 15S7.751 1.875 15 1.875 28.125 7.751 28.125 15 22.249 28.125 15 28.125Z" fill="#ED7672"/>
</svg>